<svg width="100" height="77" fill="none" xmlns="http://www.w3.org/2000/svg"><g clip-path="url('#clip0_187_479')" fill="#F9FBFC"><path d="M78.212 40.181c2.15-3.13 1.86-6.227-.222-9.245a2.973 2.973 0 0 1-.546-1.836c0-3.85-1.115-7.105-4.936-8.716-.635-.259-.568-.72-.646-1.126-.836-4.73-3.097-7.14-7.799-8.209-.39-.09-.746-.079-.958-.552-1.604-3.558-4.579-4.797-8.211-4.83a1.248 1.248 0 0 1-1.114-.597C50.57 1.21 46.783.46 42.416 2.817c-.435.237-.713.383-1.114-.112a6.696 6.696 0 0 0-2.111-1.673 6.63 6.63 0 0 0-7.537 1.098c-1.527 1.622-2.574 1.408-4.368.642C19.21-.685 11.232 4.045 10.051 12.907c-.078.63-.423.777-.847 1.014a8.712 8.712 0 0 0-3.896 3.832 8.844 8.844 0 0 0-.872 5.424c.081.335.052.688-.082 1.005a1.582 1.582 0 0 1-.665.752c-3.431 2.443-4.902 9.752-.468 13.074a3.976 3.976 0 0 1 1.343 1.602c.298.645.419 1.36.35 2.069.068 5.946 4.546 10.236 10.707 8.907.44-.066.875-.156 1.304-.27.602-.18.936-.113 1.203.574 2.418 6.171 7.933 9.606 15.787 8.345 1.894-.304 2.05-.518 2.05-2.422V38.638c0-.563-.078-1.047.58-1.464a3.299 3.299 0 0 0 1.528-1.72c.289-.74.304-1.56.042-2.311a3.58 3.58 0 0 0-1.272-1.79 3.518 3.518 0 0 0-2.07-.699c-.738.01-1.455.25-2.053.688a3.624 3.624 0 0 0-1.29 1.756 3.412 3.412 0 0 0 .09 2.31c.298.734.842 1.34 1.537 1.71.2.108.366.271.479.47.112.2.166.427.156.656V55.61c0 .72-.178.968-.924 1.058-6.284.788-10.763-2.06-12.657-8.119-.434-1.396-.802-1.588-2.228-1.216-.902.225-1.805.473-2.718.62-4.624.697-7.799-1.848-7.543-6.566.112-2.477-.312-3.986-2.562-5.371-2.83-1.746-2.652-6.757 0-8.728.969 2.804 2.718 4.719 5.77 5.023.364.007.721.1 1.043.272.32.172.598.418.807.719a3.448 3.448 0 0 0 1.894 1.186 3.42 3.42 0 0 0 2.217-.23 3.479 3.479 0 0 0 1.56-1.414 3.533 3.533 0 0 0 .468-2.065 3.655 3.655 0 0 0-.912-2.048 3.59 3.59 0 0 0-1.929-1.116 3.488 3.488 0 0 0-2.136.3 3.537 3.537 0 0 0-1.563 1.502c-.245.416-.245 1.126-1.114.777a5.564 5.564 0 0 1-2.539-1.62 5.654 5.654 0 0 1-1.338-2.716 29.86 29.86 0 0 1-.312-3.592 6.03 6.03 0 0 1 1.014-4.1 5.916 5.916 0 0 1 3.442-2.398 1.56 1.56 0 0 0 1.007-.698 1.6 1.6 0 0 0 .208-1.216 7.693 7.693 0 0 1 .891-4.403c2.407-4.707 7.643-6.441 12.957-4.29 1.994.81 1.983.81 1.248 2.736-.161.366-.299.742-.412 1.126-.076.456-.244.89-.493 1.278-.25.387-.575.719-.956.974-.551.39-.96.955-1.161 1.605a3.117 3.117 0 0 0 .047 1.988 3.38 3.38 0 0 0 1.15 1.76 3.32 3.32 0 0 0 1.959.728 3.312 3.312 0 0 0 2.053-.438 3.367 3.367 0 0 0 1.39-1.589 3.48 3.48 0 0 0 .207-2.17 3.452 3.452 0 0 0-1.121-1.861c-.379-.35-.914-.53-.669-1.273A14.226 14.226 0 0 1 33.08 4.17a4.33 4.33 0 0 1 1.66-1.085 4.29 4.29 0 0 1 3.824.452A4.36 4.36 0 0 1 39.93 4.98c.914 1.802 1.293 1.892 2.841.654 3.432-2.748 7.22-2.106 9.526 1.655.149.323.395.59.703.762.309.172.663.24 1.013.195.575-.04 1.152-.04 1.727 0a5.254 5.254 0 0 1 3.378 1.094 5.354 5.354 0 0 1 1.936 3.005c.106.336.319.628.604.831.286.204.629.307.978.295 4.646.63 6.484 2.658 6.685 7.432-.034.404.09.806.347 1.118.256.312.624.509 1.023.549a4.443 4.443 0 0 1 2.54 1.385 6.95 6.95 0 0 1 1.375 2.593c.269.954.332 1.956.185 2.936a3.54 3.54 0 0 0 .836 2.68 5.193 5.193 0 0 1 .78 6.036 10.846 10.846 0 0 0-5.65-4.11c-.523-.158-.456-.518-.5-.935a3.508 3.508 0 0 0-.38-1.416 3.472 3.472 0 0 0-.922-1.132 3.408 3.408 0 0 0-2.753-.694c-.483.082-.941.268-1.347.543s-.75.634-1.008 1.053a3.529 3.529 0 0 0-.386 2.84c.128.478.357.922.67 1.302.315.38.706.688 1.148.902a3.378 3.378 0 0 0 2.838.048 2.683 2.683 0 0 1 2.15 0 8.717 8.717 0 0 1 3.897 2.849 8.859 8.859 0 0 1 1.808 4.505c.791 4.842-2.707 10.348-7.375 11.97-.679.212-1.371.373-2.073.484-.568.124-.88 0-.958-.72a5.672 5.672 0 0 0-.924-2.805 1.913 1.913 0 0 1-.234-2.128 3.41 3.41 0 0 0-.206-2.83c-.235-.43-.56-.801-.951-1.09a3.326 3.326 0 0 0-1.317-.584 3.494 3.494 0 0 0-2.73.505 3.55 3.55 0 0 0-1 1.014 3.591 3.591 0 0 0-.526 1.33 3.322 3.322 0 0 0 .56 2.687c.279.381.636.696 1.047.924.412.229.867.364 1.334.398 1.338 0 1.76.732 2.14 1.734 1.114 2.916.245 5.124-2.63 6.317a14.615 14.615 0 0 1-8.122.743c-3.342-.54-4.668-2.14-4.679-5.63V30.981a1.306 1.306 0 0 1 .145-.748c.12-.229.307-.415.535-.536a3.287 3.287 0 0 0 1.415-1.567c.288-.666.35-1.41.178-2.115a3.5 3.5 0 0 0-1.122-1.945 3.435 3.435 0 0 0-2.064-.848 3.437 3.437 0 0 0-2.093.553c-.622.405-1.099 1-1.361 1.7a3.504 3.504 0 0 0-.129 2.229 3.47 3.47 0 0 0 1.243 1.847c.434.338.97.484.958 1.272v25.968c0 3.806 1.705 6.43 5.381 7.387a17.49 17.49 0 0 0 10.027-.349 7.567 7.567 0 0 0 2.886-1.498 7.668 7.668 0 0 0 2.005-2.578c.257-.586.669-.687 1.248-.744a13.61 13.61 0 0 0 5.543-1.983 13.772 13.772 0 0 0 4.21-4.148 13.94 13.94 0 0 0 2.103-5.55 13.992 13.992 0 0 0-.392-5.93 1.217 1.217 0 0 1 .167-1.217Zm-44.564-6.036a1.136 1.136 0 0 1 .35-.899 1.111 1.111 0 0 1 .909-.294 1.103 1.103 0 0 1 .914.35 1.13 1.13 0 0 1 .29.945c0 .81-.547 1.126-1.293 1.238a1.215 1.215 0 0 1-.89-.406 1.24 1.24 0 0 1-.314-.934h.034Zm-18.305-4.2a1.104 1.104 0 0 1 .903.332 1.13 1.13 0 0 1 .311.918 1.136 1.136 0 0 1-.33.93 1.112 1.112 0 0 1-.929.309.992.992 0 0 1-.827-.29 1.014 1.014 0 0 1-.287-.836 1.137 1.137 0 0 1 .234-.96 1.116 1.116 0 0 1 .892-.403h.033Zm12.79-14.73a1.102 1.102 0 0 1-.931-.3 1.126 1.126 0 0 1-.34-.927 1.138 1.138 0 0 1 .311-.93 1.114 1.114 0 0 1 .916-.331 1.167 1.167 0 0 1 .912.31 1.194 1.194 0 0 1 .38.895 1.238 1.238 0 0 1-.358.93 1.21 1.21 0 0 1-.923.354h.033Zm38.738 19.426c-.769-.102-1.26-.484-1.27-1.284a1.137 1.137 0 0 1 .303-.951 1.112 1.112 0 0 1 .933-.333 1.103 1.103 0 0 1 .931.32 1.127 1.127 0 0 1 .317.941c.034.856-.535 1.138-1.214 1.307Zm-5.883 16.35a1.104 1.104 0 0 1-.844-.38 1.129 1.129 0 0 1-.27-.892 1.217 1.217 0 0 1 .38-.91 1.188 1.188 0 0 1 .924-.317 1.158 1.158 0 0 1 .85.42 1.187 1.187 0 0 1 .264.92 1.238 1.238 0 0 1-.41.857 1.212 1.212 0 0 1-.894.303ZM46.138 28.11a1.159 1.159 0 0 1-.91-.355 1.185 1.185 0 0 1-.328-.928c0-.8.524-1.127 1.226-1.284.802.101 1.292.53 1.281 1.306a1.193 1.193 0 0 1-.347.927 1.167 1.167 0 0 1-.923.334Z"/><path d="M97.019 35.08a2.21 2.21 0 0 0-2.229 0v9.954a47.575 47.575 0 0 1-.189 6.183C93.342 59.47 88.83 65.529 81.79 69.493c-8.69 4.865-17.97 5.18-27.318 2.331-6.139-1.87-9.938-6.295-11.754-12.488a37.19 37.19 0 0 1-1.415-9.932c-.111-9.156 0-18.3 0-27.455-.047-.322.007-.65.152-.94a1.57 1.57 0 0 1 .661-.681 3.371 3.371 0 0 0 1.368-1.69 3.412 3.412 0 0 0 .058-2.184 3.614 3.614 0 0 0-1.296-1.824 3.551 3.551 0 0 0-2.113-.698 3.486 3.486 0 0 0-2.037.715 3.547 3.547 0 0 0-1.238 1.785 3.265 3.265 0 0 0 0 2.179c.25.704.735 1.3 1.37 1.683.303.165.547.423.697.736.15.313.199.667.139 1.01v27.983a40.178 40.178 0 0 0 .39 7.23c1.448 8.152 5.737 14.03 13.57 17.003a36.895 36.895 0 0 0 16.4 1.79c9.124-.776 16.8-4.503 22.549-11.868a21.805 21.805 0 0 0 5.024-11.779c.39-5.754-.01-11.543.023-17.32ZM40.065 18.706a1.102 1.102 0 0 1-.93-.32 1.128 1.128 0 0 1-.317-.94 1.137 1.137 0 0 1 .325-.939 1.111 1.111 0 0 1 .934-.312c.79 0 1.18.496 1.27 1.261a1.226 1.226 0 0 1-.367.912 1.202 1.202 0 0 1-.915.338Z"/><path d="M99.28 30.497a3.65 3.65 0 0 0-1.256-1.846 3.586 3.586 0 0 0-2.086-.755 3.53 3.53 0 0 0-2.152.71 3.593 3.593 0 0 0-1.29 1.88 3.482 3.482 0 0 0 .028 2.221 3.44 3.44 0 0 0 1.364 1.742l.847.631h2.228l.847-.63a3.37 3.37 0 0 0 1.421-1.716 3.413 3.413 0 0 0 .05-2.237Zm-3.342 2.252c-.68-.135-1.192-.484-1.203-1.205a1.136 1.136 0 0 1 .34-.872 1.112 1.112 0 0 1 .874-.31 1.103 1.103 0 0 1 .817.357 1.126 1.126 0 0 1 .297.848c-.011.687-.501 1.047-1.159 1.182h.034Z"/></g><defs><clipPath id="clip0_187_479"><path fill="#fff" transform="translate(.447 .25)" d="M0 0h99v76H0z"/></clipPath></defs></svg>