<svg width="34" height="34" fill="none" xmlns="http://www.w3.org/2000/svg"><circle cx="17.341" cy="17.119" r="16.132" stroke="#A6A6A6"/><path d="M23.63 13.46a5.342 5.342 0 0 1-1.534.413c.556-.33.973-.853 1.172-1.468a5.26 5.26 0 0 1-1.69.643 2.658 2.658 0 0 0-1.947-.842 2.664 2.664 0 0 0-2.665 2.666c0 .206.025.412.066.61a7.572 7.572 0 0 1-5.494-2.788 2.645 2.645 0 0 0-.362 1.345c0 .925.47 1.74 1.187 2.22a2.687 2.687 0 0 1-1.204-.339v.033c0 1.295.915 2.369 2.135 2.616-.229.06-.464.09-.701.09-.174 0-.338-.017-.503-.04a2.67 2.67 0 0 0 2.49 1.848 5.34 5.34 0 0 1-3.307 1.14c-.224 0-.43-.009-.644-.034a7.544 7.544 0 0 0 4.092 1.196c4.9 0 7.581-4.06 7.581-7.583 0-.116 0-.232-.008-.347.52-.38.974-.85 1.337-1.378Z" fill="#A6A6A6"/></svg>