<svg width="1440" height="150" fill="none" xmlns="http://www.w3.org/2000/svg"><path d="m316.607 58.948 1.207 3.528-2.142 6.178c.847.139 1.703.205 2.561.2.59 0 1.179-.03 1.765-.093l.736 2.294c-.794.08-1.66.138-2.49.138a23.773 23.773 0 0 1-3.297-.238l-1.221 3.58H310l5.827-15.587h.78Z" fill="#999799" fill-opacity=".6"/><path d="M403.996 62.476c3.752 0 6.004 1.75 6.004 6.166 0 .554-.015 1.154-.029 1.233h-8.638c-.015 1.778 1.497 2.554 3.856 2.554 1.588 0 2.854-.37 3.707-.623l.139 2.308c-.707.264-2.237.649-4.326.649-4.141.005-6.968-1.52-6.968-6.134 0-2.983 1.178-4.973 3.561-5.77v4.843h5.182c.013-2.149-.81-3.077-2.59-3.077-.83 0-1.443.2-1.869.624v-2.587a9.896 9.896 0 0 1 1.971-.186Zm-54.628-4.814v10.98c0 2.352.485 3.792 2.59 3.792 2.104 0 2.751-1.445 2.751-3.792 0-2.346-.647-3.793-2.751-3.793-.883 0-1.472.252-1.869.717v-2.334c.676-.425 1.589-.703 2.84-.703 3.179 0 5.253 1.816 5.253 6.1 0 4.288-2.075 6.087-5.282 6.087-1.987 0-3.135-.692-3.783-1.579l-.161 1.393h-3.016V59.943h-1.532v-2.281h4.96Zm25.617 4.904c2.016 0 3.164.703 3.796 1.591l.177-1.46h3.002l.005 11.833h-3.43v-5.888c0-2.352-.486-3.793-2.59-3.793s-2.751 1.446-2.751 3.793c0 2.348.647 3.787 2.751 3.787.884 0 1.472-.252 1.869-.715v2.307c-.676.424-1.603.692-2.84.692-3.207 0-5.257-1.79-5.257-6.073 0-4.284 2.046-6.074 5.268-6.074Zm-54.183-3.617 5.827 15.581h-3.9l-5.312-15.581h3.385Zm11.195 3.752v9.545h1.384v2.284h-4.808v-9.546h-1.53v-2.283h4.954Zm11.181-.212c.329-.003.657.028.98.093l-.045 2.705a10.383 10.383 0 0 0-.968-.053c-1.015 0-1.736.239-2.237.61-1.107.819-1.147 2.34-1.148 3.172v5.514h-3.416v-9.546h-1.532v-2.283h4.548l.221 1.896c.619-1.206 1.766-2.108 3.597-2.108Zm24.805 0c.332-.004.662.027.987.093l-.044 2.705a10.425 10.425 0 0 0-.969-.053c-1.015 0-1.736.239-2.237.61-1.106.819-1.145 2.34-1.147 3.172v5.514h-3.417v-9.546h-1.531v-2.283h4.547l.221 1.896c.619-1.206 1.766-2.108 3.59-2.108Zm20.648-4.827V74.53h-3.428V59.943h-1.53v-2.281h4.958Zm8.26 5.033-4.198 5.523 4.725 6.312H393.4l-4.518-6.252 4.135-5.583h3.874Zm-66.759-5.484c1.06 0 1.84.692 1.84 1.645 0 .953-.78 1.643-1.84 1.643-1.059 0-1.838-.689-1.838-1.643h-.004c.004-.953.783-1.645 1.842-1.645ZM853.251 53.607h18.189a3.253 3.253 0 0 1 3.251 3.252v18.19c0 1.79-1.453 3.25-3.251 3.25h-18.189a3.252 3.252 0 0 1-3.251-3.25V56.85a3.246 3.246 0 0 1 3.251-3.243Z" fill="#999799"/><path d="M864.919 59.12v-.847c0-.592-.48-1.071-1.072-1.07h-2.499c-.592-.001-1.072.478-1.072 1.07v.87c0 .096.089.164.187.142a7.806 7.806 0 0 1 2.175-.307c.713 0 1.419.097 2.101.284.09.023.18-.044.18-.142Zm-6.849 1.108-.427-.427a1.07 1.07 0 0 0-1.515 0l-.51.51a1.065 1.065 0 0 0 0 1.513l.419.42c.068.066.166.05.226-.016.247-.34.521-.66.817-.959.3-.3.623-.576.968-.823.074-.045.082-.15.022-.218Zm4.561 2.688v3.663c0 .105.113.18.21.127l3.256-1.685c.074-.037.096-.127.059-.202a4.05 4.05 0 0 0-3.375-2.045c-.075 0-.15.06-.15.142Zm0 8.823a4.92 4.92 0 0 1-4.921-4.913 4.92 4.92 0 0 1 4.921-4.913 4.92 4.92 0 0 1 4.921 4.913 4.916 4.916 0 0 1-4.921 4.913Zm0-11.893a6.982 6.982 0 0 0-6.984 6.98c0 3.857 3.128 6.973 6.984 6.973a6.981 6.981 0 0 0 6.983-6.98 6.97 6.97 0 0 0-6.983-6.973Z" fill="#fff"/><path d="M899.221 73.192c-4.808.022-4.808-3.88-4.808-4.501l-.008-14.619 2.933-.465v14.53c0 .352 0 2.584 1.883 2.59v2.465Zm-11.889-2.39c.9 0 1.568-.052 2.033-.141v-2.98a6.933 6.933 0 0 0-1.726-.218 6.24 6.24 0 0 0-.982.074c-.33.046-.631.135-.893.263a1.601 1.601 0 0 0-.638.539c-.165.232-.24.367-.24.719 0 .688.24 1.086.675 1.348.435.262 1.028.397 1.771.397Zm-.255-10.634c.967 0 1.785.12 2.445.36.66.24 1.193.576 1.582 1.003.399.434.668 1.012.833 1.626a7.46 7.46 0 0 1 .255 2.029v7.535a35.58 35.58 0 0 1-2.047.343c-.915.135-1.943.203-3.084.203a9.375 9.375 0 0 1-2.077-.217c-.631-.142-1.163-.375-1.613-.697a3.374 3.374 0 0 1-1.042-1.242c-.248-.51-.376-1.229-.376-1.978 0-.719.142-1.176.421-1.67a3.55 3.55 0 0 1 1.147-1.214 4.937 4.937 0 0 1 1.68-.673 9.656 9.656 0 0 1 1.995-.203 9.205 9.205 0 0 1 2.161.262v-.48c0-.336-.038-.658-.12-.957a2.059 2.059 0 0 0-.421-.801 1.952 1.952 0 0 0-.794-.54 3.466 3.466 0 0 0-1.253-.225c-.675 0-1.29.082-1.853.18a8.474 8.474 0 0 0-1.381.337l-.351-2.404c.367-.127.914-.255 1.62-.381a12.039 12.039 0 0 1 2.273-.196Zm57.924 10.553c.9 0 1.567-.053 2.032-.143v-2.98a6.947 6.947 0 0 0-1.726-.218c-.322 0-.652.023-.982.075-.329.045-.63.135-.892.263a1.594 1.594 0 0 0-.638.539c-.166.232-.24.367-.24.719 0 .688.24 1.086.675 1.347.442.27 1.028.398 1.771.398Zm-.248-10.627c.967 0 1.784.12 2.445.36.659.239 1.192.575 1.582 1.002.39.427.668 1.011.833 1.626.172.614.255 1.288.255 2.03v7.534c-.45.096-1.133.208-2.048.344-.914.135-1.942.202-3.083.202a9.375 9.375 0 0 1-2.077-.217c-.631-.142-1.162-.375-1.613-.697a3.384 3.384 0 0 1-1.042-1.243c-.248-.509-.376-1.228-.376-1.977 0-.72.143-1.176.421-1.67a3.55 3.55 0 0 1 1.147-1.214 4.957 4.957 0 0 1 1.68-.674 9.659 9.659 0 0 1 1.996-.201c.322 0 .66.022 1.02.06.36.037.735.104 1.14.202v-.48c0-.337-.037-.659-.12-.958a2.043 2.043 0 0 0-.421-.802 1.952 1.952 0 0 0-.794-.539 3.468 3.468 0 0 0-1.253-.224c-.675 0-1.29.082-1.853.18-.563.097-1.028.209-1.38.337l-.352-2.405c.367-.127.914-.254 1.62-.382a12.753 12.753 0 0 1 2.273-.194Zm-8.807-1.393c.982 0 1.786-.794 1.786-1.776 0-.98-.795-1.774-1.786-1.774-.99 0-1.785.794-1.785 1.774 0 .982.803 1.776 1.785 1.776Zm1.477 14.49h-2.947V60.55l2.947-.464v13.106Zm-5.167.001c-4.808.022-4.808-3.88-4.808-4.501l-.008-14.619 2.933-.465v14.53c0 .352 0 2.584 1.883 2.59v2.465Zm-9.534-6.47c0-1.267-.278-2.322-.818-3.056-.54-.742-1.297-1.108-2.265-1.108-.968 0-1.726.366-2.265 1.108-.54.74-.803 1.79-.803 3.056 0 1.28.27 2.14.81 2.882.54.75 1.298 1.117 2.266 1.117.967 0 1.725-.375 2.265-1.117.54-.749.81-1.602.81-2.882Zm3-.008c0 .99-.142 1.737-.435 2.554-.293.816-.705 1.512-1.237 2.09a5.467 5.467 0 0 1-1.921 1.34c-.75.314-1.905.494-2.482.494-.579-.007-1.726-.172-2.469-.494a5.592 5.592 0 0 1-1.912-1.34c-.533-.578-.945-1.274-1.246-2.09a6.964 6.964 0 0 1-.449-2.554c0-.988.134-1.94.435-2.749.3-.808.72-1.498 1.26-2.074a5.622 5.622 0 0 1 1.92-1.333c.742-.315 1.56-.464 2.445-.464.886 0 1.703.156 2.453.464a5.344 5.344 0 0 1 1.921 1.333c.531.577.944 1.266 1.245 2.074.314.81.472 1.76.472 2.75Zm-22.075 0c0 1.228.269 2.591.809 3.16.541.57 1.238.854 2.094.854.465 0 .907-.067 1.32-.195a3.74 3.74 0 0 0 1.005-.456v-7.272a11.488 11.488 0 0 0-1.936-.247c-1.065-.03-1.875.404-2.445 1.1-.562.697-.847 1.918-.847 3.056Zm8.153 5.781c0 2-.51 3.46-1.538 4.39-1.027.927-2.595 1.392-4.71 1.392-.773 0-2.378-.15-3.661-.434l.473-2.322c1.073.224 2.49.285 3.233.285 1.177 0 2.018-.24 2.52-.72.503-.479.75-1.19.75-2.134v-.48a8.841 8.841 0 0 1-1.147.436 5.702 5.702 0 0 1-1.636.217c-.81 0-1.545-.128-2.212-.383a4.606 4.606 0 0 1-1.718-1.123c-.472-.494-.848-1.115-1.11-1.857-.263-.742-.398-2.067-.398-3.04 0-.914.143-2.06.42-2.824.285-.764.69-1.423 1.238-1.97.54-.546 1.201-.966 1.973-1.273a7.244 7.244 0 0 1 2.662-.501c.953 0 1.831.12 2.686.262.855.142 1.582.291 2.175.456v11.623ZM490.05 68.762c0-1.129.189-2.183.567-3.16a7.803 7.803 0 0 1 1.588-2.557 7.319 7.319 0 0 1 2.443-1.71c.948-.413 1.986-.62 3.116-.62.857 0 1.636.127 2.336.379.701.252 1.379.666 2.035 1.24v-1.316h3.841v15.488h-3.841V75.19c-.656.575-1.334.989-2.035 1.24-.7.253-1.479.379-2.336.379-1.13 0-2.168-.207-3.116-.62a7.318 7.318 0 0 1-2.443-1.71 7.803 7.803 0 0 1-1.588-2.556 8.693 8.693 0 0 1-.567-3.16Zm8.213 4.432c.302 0 .62-.033.953-.098a4.428 4.428 0 0 0 1.005-.333c.338-.156.668-.366.991-.628.323-.262.63-.585.923-.968v-4.81a5.441 5.441 0 0 0-.923-.96 5.175 5.175 0 0 0-.991-.628 4.229 4.229 0 0 0-1.005-.34 4.944 4.944 0 0 0-.953-.098c-.595 0-1.152.11-1.672.332-.519.222-.97.532-1.353.93a4.329 4.329 0 0 0-.9 1.407 4.679 4.679 0 0 0-.325 1.762c0 .636.108 1.223.325 1.762.217.54.516 1.009.9 1.407.383.398.834.708 1.353.93.52.222 1.077.333 1.672.333ZM515.58 64.54c-1.82.012-3.401 1.281-3.401 3.164v8.802h-3.842V67.81c.021-3.626 3.162-7.044 7.188-7.093h.108c4.026.049 7.167 3.467 7.188 7.093v8.697h-3.842v-8.802c0-1.883-1.581-3.151-3.401-3.165M524.64 68.762c0-1.129.189-2.183.567-3.16a7.804 7.804 0 0 1 1.588-2.557 7.317 7.317 0 0 1 2.443-1.709c.947-.413 1.986-.62 3.115-.62.857 0 1.639.126 2.345.378.706.252 1.381.66 2.026 1.225v-5.944h3.842v20.131h-3.842v-1.3c-.645.574-1.32.985-2.026 1.232-.706.247-1.488.37-2.345.37-1.129 0-2.168-.206-3.115-.62a7.317 7.317 0 0 1-2.443-1.708 7.803 7.803 0 0 1-1.588-2.556 8.693 8.693 0 0 1-.567-3.162Zm8.213 4.432c.302 0 .62-.033.952-.098a4.44 4.44 0 0 0 1.006-.333 4.72 4.72 0 0 0 .991-.628c.323-.262.63-.585.922-.968v-4.81a5.17 5.17 0 0 0-1.913-1.588 4.232 4.232 0 0 0-1.006-.34 4.934 4.934 0 0 0-.952-.098c-.595 0-1.153.11-1.672.332a4.08 4.08 0 0 0-1.353.93 4.312 4.312 0 0 0-.9 1.407 4.679 4.679 0 0 0-.326 1.762c0 .636.109 1.223.326 1.762.216.54.516 1.009.9 1.407a4.08 4.08 0 0 0 1.353.93 4.21 4.21 0 0 0 1.672.333ZM558.557 73.194c.574 0 1.116-.109 1.626-.325a4.012 4.012 0 0 0 1.331-.915 4.32 4.32 0 0 0 .892-1.4c.217-.539.325-1.136.325-1.792 0-.645-.111-1.237-.333-1.777a4.34 4.34 0 0 0-.907-1.399 4.207 4.207 0 0 0-1.331-.923 3.938 3.938 0 0 0-1.603-.332c-.575 0-1.117.11-1.626.332-.509.222-.953.53-1.331.923s-.678.86-.9 1.4a4.626 4.626 0 0 0-.333 1.776c0 .656.108 1.253.325 1.793.217.54.514 1.005.893 1.399.378.393.821.698 1.331.915a4.143 4.143 0 0 0 1.641.325Zm0 3.615a8.28 8.28 0 0 1-3.161-.605 8.023 8.023 0 0 1-2.594-1.687 7.96 7.96 0 0 1-1.755-2.556c-.428-.983-.643-2.05-.643-3.199 0-1.119.215-2.168.643-3.146a8.148 8.148 0 0 1 1.747-2.556 8.172 8.172 0 0 1 2.594-1.717 8.076 8.076 0 0 1 3.169-.627c1.119 0 2.173.21 3.161.627.988.419 1.85.991 2.586 1.717a8.132 8.132 0 0 1 1.747 2.556c.429.978.643 2.027.643 3.146 0 1.15-.214 2.216-.643 3.2a7.958 7.958 0 0 1-1.754 2.555 8.068 8.068 0 0 1-2.587 1.687 8.225 8.225 0 0 1-3.153.605ZM570.337 59.806c-.312 0-.606-.061-.883-.183a2.367 2.367 0 0 1-1.226-1.225 2.183 2.183 0 0 1-.182-.883c0-.311.061-.608.182-.89a2.35 2.35 0 0 1 1.226-1.233c.277-.121.571-.182.883-.182.311 0 .607.06.89.182a2.333 2.333 0 0 1 1.415 2.123c0 .312-.061.606-.183.883a2.336 2.336 0 0 1-1.232 1.225 2.229 2.229 0 0 1-.89.183ZM568.415 61.019h3.842v15.488h-3.842V61.019ZM574.023 68.762c0-1.129.19-2.183.568-3.16a7.804 7.804 0 0 1 1.588-2.557 7.313 7.313 0 0 1 2.442-1.709c.948-.413 1.987-.62 3.116-.62.857 0 1.639.126 2.345.378.705.252 1.381.66 2.026 1.225v-5.944h3.842v20.131h-3.842v-1.3c-.645.574-1.321.985-2.026 1.232-.706.247-1.488.37-2.345.37-1.129 0-2.168-.206-3.116-.62a7.313 7.313 0 0 1-2.442-1.708 7.803 7.803 0 0 1-1.588-2.556 8.694 8.694 0 0 1-.568-3.162Zm8.213 4.432c.303 0 .62-.033.953-.098a4.44 4.44 0 0 0 1.006-.333 4.72 4.72 0 0 0 .991-.628c.322-.262.63-.585.922-.968v-4.81a5.17 5.17 0 0 0-1.913-1.588 4.232 4.232 0 0 0-1.006-.34 4.944 4.944 0 0 0-.953-.098c-.595 0-1.152.11-1.671.332a4.085 4.085 0 0 0-1.354.93 4.344 4.344 0 0 0-.9 1.407 4.698 4.698 0 0 0-.325 1.762c0 .636.109 1.223.325 1.762.217.54.517 1.009.9 1.407.383.398.835.708 1.354.93a4.205 4.205 0 0 0 1.671.333ZM550.038 64.493c-2.575 0-3.71 1.329-3.71 3.211v8.803h-3.842V67.81c.022-3.627 2.117-7.192 7.552-7.192" fill="#999799"/><path fill-rule="evenodd" clip-rule="evenodd" d="M699.414 72.504V60.199h1.582l7.52 9.903v-9.903h1.504v12.305h-1.582l-7.52-10v10h-1.504ZM722.266 72.016a9.136 9.136 0 0 1-3.204.566c-4.453 0-6.679-2.129-6.679-6.406 0-4.043 2.148-6.074 6.445-6.074 1.231 0 2.383.175 3.438.507v1.368a8.942 8.942 0 0 0-3.262-.606c-3.359 0-5.039 1.602-5.039 4.766 0 3.418 1.66 5.117 4.961 5.117.527 0 1.113-.078 1.758-.215v-4.121h1.582v5.098ZM724.805 67.758v-7.559h1.582v7.559c0 2.363 1.172 3.555 3.535 3.555 2.344 0 3.535-1.192 3.535-3.555v-7.559h1.582v7.559c0 3.223-1.699 4.844-5.117 4.844s-5.117-1.621-5.117-4.844ZM739.453 60.2v11.015h6.445v1.289h-8.027V60.199h1.582ZM748.184 72.504h-1.661l6.114-13.926 6.113 13.926h-1.758l-1.582-3.867h-4.062l.429-1.29h3.106l-2.305-5.566-4.394 10.723ZM760.449 72.504V60.199h5.254c2.344 0 3.516.977 3.516 2.95 0 1.601-1.153 2.792-3.438 3.554l4.219 5.8h-2.09l-3.906-5.526V65.94c2.344-.37 3.535-1.27 3.535-2.714 0-1.133-.644-1.7-1.953-1.7h-3.516v10.977h-1.621ZM670 56.918l12.598-4.492 12.929 4.414-2.089 16.66-10.84 5.996-10.664-5.918L670 56.918Z" fill="#999799"/><path fill-rule="evenodd" clip-rule="evenodd" d="m695.527 56.84-12.929-4.414v27.07l10.84-5.996 2.089-16.66Z" fill="#6D6D6D"/><path fill-rule="evenodd" clip-rule="evenodd" d="m682.617 55.59-7.851 17.46 2.929-.058 1.582-3.945H686.289l1.719 3.984 2.793.059-8.184-17.5Zm.02 5.605 2.656 5.547h-4.981l2.325-5.547Z" fill="#fff"/><path d="m1126.89 69.647 2.77 1.85c-.9 1.326-3.05 3.6-6.78 3.6-4.62 0-8.06-3.576-8.06-8.127 0-4.842 3.48-8.127 7.67-8.127 4.22 0 6.29 3.358 6.96 5.17l.37.925-10.88 4.502c.83 1.63 2.12 2.458 3.94 2.458 1.83 0 3.09-.9 4.01-2.25Zm-8.53-2.932 7.26-3.018c-.4-1.01-1.59-1.727-3.02-1.727-1.81 0-4.33 1.606-4.24 4.745ZM1109.57 50.557h3.51v23.798h-3.51V50.557ZM1104.05 59.476h3.38V73.93c0 5.999-3.54 8.469-7.73 8.469-3.94 0-6.31-2.653-7.2-4.806l3.1-1.29c.56 1.326 1.91 2.896 4.1 2.896 2.69 0 4.35-1.667 4.35-4.782v-1.168h-.12c-.81.973-2.34 1.85-4.29 1.85-4.06 0-7.78-3.541-7.78-8.104 0-4.587 3.72-8.164 7.78-8.164 1.94 0 3.48.864 4.29 1.813h.12v-1.168Zm.24 7.52c0-2.872-1.91-4.965-4.34-4.965-2.46 0-4.53 2.093-4.53 4.964 0 2.835 2.07 4.891 4.53 4.891 2.43.012 4.34-2.056 4.34-4.89ZM1072.62 66.934c0 4.684-3.65 8.127-8.13 8.127-4.47 0-8.12-3.455-8.12-8.127 0-4.709 3.65-8.14 8.12-8.14 4.48 0 8.13 3.431 8.13 8.14Zm-3.55 0c0-2.92-2.12-4.928-4.58-4.928-2.45 0-4.57 2.008-4.57 4.928 0 2.895 2.12 4.927 4.57 4.927 2.46 0 4.58-2.032 4.58-4.927ZM1090.37 66.97c0 4.685-3.65 8.128-8.13 8.128-4.47 0-8.12-3.443-8.12-8.128 0-4.708 3.65-8.127 8.12-8.127 4.48 0 8.13 3.406 8.13 8.127Zm-3.56 0c0-2.92-2.12-4.927-4.58-4.927s-4.57 2.007-4.57 4.927c0 2.896 2.11 4.928 4.57 4.928 2.47 0 4.58-2.044 4.58-4.928ZM1043.01 71.533c-5.1 0-9.09-4.112-9.09-9.21 0-5.098 3.99-9.21 9.09-9.21 2.75 0 4.75 1.082 6.24 2.469l2.44-2.446c-2.07-1.983-4.83-3.492-8.68-3.492-6.99 0-12.86 5.695-12.86 12.679 0 6.983 5.87 12.678 12.86 12.678 3.77 0 6.61-1.242 8.84-3.553 2.29-2.288 2.99-5.5 2.99-8.103 0-.816-.09-1.655-.2-2.276h-11.63v3.383h8.28c-.24 2.117-.91 3.565-1.9 4.55-1.19 1.205-3.07 2.531-6.38 2.531Z" fill="#999799"/></svg>