<svg width="35" height="34" fill="none" xmlns="http://www.w3.org/2000/svg"><circle cx="17.605" cy="17.119" r="16.132" stroke="#A6A6A6"/><g clip-path="url('#clip0_187_469')" fill="#A6A6A6"><path d="M19.916 15.087a3.888 3.888 0 0 0-3.9 3.88v3.92a.6.6 0 0 0 .6.6h1.4a.6.6 0 0 0 .6-.6v-3.92a1.295 1.295 0 0 1 1.433-1.287 1.334 1.334 0 0 1 1.167 1.334v3.873a.6.6 0 0 0 .6.6h1.4a.6.6 0 0 0 .6-.6v-3.92a3.887 3.887 0 0 0-3.9-3.88ZM14.215 15.688h-1.8a.6.6 0 0 0-.6.6v6.6a.6.6 0 0 0 .6.6h1.8a.6.6 0 0 0 .6-.6v-6.6a.6.6 0 0 0-.6-.6ZM13.315 14.487a1.5 1.5 0 1 0 0-3 1.5 1.5 0 0 0 0 3Z"/></g><defs><clipPath id="clip0_187_469"><path fill="#fff" transform="translate(9.815 9.487)" d="M0 0h16v16H0z"/></clipPath></defs></svg>