<svg width="34" height="34" fill="none" xmlns="http://www.w3.org/2000/svg"><circle cx="17.079" cy="17.119" r="16.132" stroke="#A6A6A6"/><g clip-path="url('#clip0_187_458')"><path d="M13.664 18.009h1.754v7.22c0 .143.116.258.258.258h2.974a.258.258 0 0 0 .258-.258v-7.186h2.016a.258.258 0 0 0 .257-.229l.306-2.658a.258.258 0 0 0-.256-.287h-2.323v-1.667c0-.502.27-.757.804-.757h1.518a.258.258 0 0 0 .259-.258v-2.44a.258.258 0 0 0-.259-.258h-2.092a2.06 2.06 0 0 0-.096-.002c-.363 0-1.625.072-2.622.989-1.105 1.016-.951 2.233-.915 2.444v1.948h-1.84a.258.258 0 0 0-.259.259v2.624c0 .142.116.258.258.258Z" fill="#A6A6A6"/></g><defs><clipPath id="clip0_187_458"><path fill="#fff" transform="translate(9.447 9.487)" d="M0 0h16v16H0z"/></clipPath></defs></svg>