<svg xmlns="http://www.w3.org/2000/svg" width="90" height="90"><defs><style>.b{fill:#2bdf9d}.b{stroke:#f7f7f7;stroke-width:2px}.d{stroke:none}.e{fill:none}</style></defs><circle cx="45" cy="45" r="45" style="fill:#2bdf9d"/><g class="b" transform="translate(7 7)"><circle class="d" cx="38" cy="38" r="38"/><circle class="e" cx="38" cy="38" r="37"/></g><g class="b" transform="translate(31 24.617)"><circle class="d" cx="8" cy="8" r="8"/><circle class="e" cx="8" cy="8" r="7"/></g><path d="M8.884 0a2.953 2.953 0 0 1 2.87 2.934v6.539a3.221 3.221 0 0 1 4.646.413 3 3 0 0 1 4.081 1.077c3.218-.588 4.667 1.437 4.667 4.755 0 .18-.013.869-.013 1.048.011 4.059-2.034 5.036-2.509 8.1a1.57 1.57 0 0 1-1.552 1.334H9.841a3.144 3.144 0 0 1-2.871-1.864c-.851-1.892-3.212-6.249-5.064-7.043A2.791 2.791 0 0 1 0 14.67a3.146 3.146 0 0 1 4.382-2.889 8.9 8.9 0 0 1 1.632.927V2.934A3 3 0 0 1 8.884 0Zm.023 27.244h12.574a1.572 1.572 0 0 1 1.572 1.572v3.144a1.572 1.572 0 0 1-1.572 1.572H8.907a1.572 1.572 0 0 1-1.572-1.572v-3.144a1.572 1.572 0 0 1 1.572-1.572Zm11 1.834a1.31 1.31 0 1 0 1.31 1.31 1.31 1.31 0 0 0-1.308-1.31Z" transform="translate(30.926 31.851)" style="fill:#f7f7f7"/></svg>