<svg xmlns="http://www.w3.org/2000/svg" width="90" height="90"><circle cx="45" cy="45" r="45" style="fill:#2bdf9d"/><g transform="translate(7 7)" style="stroke:#f7f7f7;stroke-width:2px;fill:#2bdf9d"><circle cx="38" cy="38" r="38" style="stroke:none" stroke="none"/><circle cx="38" cy="38" r="37" style="fill:none"/></g><path d="M8.67 8.809a4.062 4.062 0 0 0-2.749 2.625L0 29.2l.932.932L10.46 20.6a3.075 3.075 0 1 1 1.44 1.437l-9.532 9.528.932.935 17.763-5.921a4.062 4.062 0 0 0 2.625-2.749l2.716-9.61-8.124-8.127ZM31.6 4.708 27.79.892a3.048 3.048 0 0 0-4.31 0l-3.59 3.59 8.126 8.126 3.584-3.59a3.048 3.048 0 0 0 0-4.31Z" transform="translate(28.751 28.752)" style="fill:#f7f7f7"/></svg>