<svg xmlns="http://www.w3.org/2000/svg" width="90" height="90"><circle cx="45" cy="45" r="45" style="fill:#2bdf9d"/><g transform="translate(7 7)" style="stroke:#f7f7f7;stroke-width:2px;fill:#2bdf9d"><circle cx="38" cy="38" r="38" style="stroke:none" stroke="none"/><circle cx="38" cy="38" r="37" style="fill:none"/></g><path d="M5.691 8.383H3v18.84a2.7 2.7 0 0 0 2.691 2.691h18.84v-2.691H5.691ZM27.223 3H11.074a2.7 2.7 0 0 0-2.691 2.691V21.84a2.7 2.7 0 0 0 2.691 2.691h16.149a2.7 2.7 0 0 0 2.691-2.691V5.691A2.7 2.7 0 0 0 27.223 3ZM16.457 19.821V7.71l8.074 6.056Z" transform="translate(28.543 28.543)" style="fill:#f7f7f7"/></svg>