<svg width="44" height="44" fill="none" xmlns="http://www.w3.org/2000/svg"><g clip-path="url('#clip0_187_583')" fill="#80C904"><path d="M23.154 2.963a18.334 18.334 0 0 0-1.37-.052v-2.7c.523 0 1.045.02 1.567.06l-.197 2.692Zm5.33 1.215a18.416 18.416 0 0 0-2.62-.808l.582-2.635a20.77 20.77 0 0 1 2.995.923l-.957 2.52Zm3.643 1.917c-.38-.257-.77-.5-1.168-.729l1.312-2.35a21.32 21.32 0 0 1 2.603 1.767l-1.635 2.13c-.36-.285-.732-.557-1.112-.815v-.003Zm4.877 4.834a18.815 18.815 0 0 0-1.736-2.15l1.925-1.863a22.47 22.47 0 0 1 1.987 2.457l-2.175 1.556Zm1.98 3.65c-.175-.427-.365-.849-.57-1.263l2.375-1.215c.47.948.87 1.93 1.197 2.938l-2.527.845c-.143-.44-.301-.875-.476-1.304Zm1.409 6.77a19.152 19.152 0 0 0-.266-2.767l2.62-.46c.178 1.043.281 2.102.308 3.16l-2.66.068h-.002Zm-.349 4.154c.088-.459.16-.915.216-1.377l2.64.332a21.786 21.786 0 0 1-.611 3.119l-2.564-.721c.123-.446.229-.897.32-1.353Zm-2.531 6.424c.489-.783.92-1.604 1.292-2.452l2.43 1.094a21.9 21.9 0 0 1-1.475 2.803l-2.247-1.445Zm-2.564 3.254c.324-.329.635-.67.93-1.02l2.017 1.763c-.342.402-.698.791-1.067 1.167l-1.88-1.91Z"/><path d="M21.784 2.911c-3.061 0-6.075.767-8.775 2.233a18.721 18.721 0 0 0-6.703 6.17 19.089 19.089 0 0 0-3.047 8.648c-.3 3.094.156 6.215 1.327 9.086a18.886 18.886 0 0 0 5.39 7.378 18.496 18.496 0 0 0 8.177 3.928c3.003.607 6.107.452 9.036-.45a18.563 18.563 0 0 0 7.76-4.723l1.88 1.91a21.22 21.22 0 0 1-8.87 5.4 20.97 20.97 0 0 1-10.329.518 21.141 21.141 0 0 1-9.35-4.49 21.585 21.585 0 0 1-6.16-8.434A21.908 21.908 0 0 1 .603 19.698 21.819 21.819 0 0 1 4.088 9.81a21.398 21.398 0 0 1 7.664-7.05A21.023 21.023 0 0 1 21.784.21v2.7Z"/><path d="M20.455 8.313c.352 0 .69.142.94.395s.39.597.39.955v14.069l8.638 5.012c.297.182.512.475.6.816.087.341.04.704-.133 1.01a1.334 1.334 0 0 1-.79.628 1.312 1.312 0 0 1-.997-.11l-9.308-5.401a1.34 1.34 0 0 1-.49-.494 1.367 1.367 0 0 1-.18-.678V9.663c0-.358.14-.702.39-.955a1.32 1.32 0 0 1 .94-.396Z"/></g><defs><clipPath id="clip0_187_583"><path fill="#fff" transform="translate(.509 .21)" d="M0 0h42.552v43.207H0z"/></clipPath></defs></svg>