<svg xmlns="http://www.w3.org/2000/svg" width="90" height="90"><circle cx="45" cy="45" r="45" style="fill:#2bdf9d"/><g transform="translate(7 7)" style="stroke:#f7f7f7;stroke-width:2px;fill:#2bdf9d"><circle cx="38" cy="38" r="38" style="stroke:none" stroke="none"/><circle cx="38" cy="38" r="37" style="fill:none"/></g><path d="M35.055 6H6.562a3.557 3.557 0 0 0-3.544 3.562L3 30.932a3.572 3.572 0 0 0 3.562 3.562h28.493a3.572 3.572 0 0 0 3.562-3.562V9.562A3.572 3.572 0 0 0 35.055 6Zm-8.9 24.932H6.562v-7.124h19.589Zm0-8.9H6.562V14.9h19.589Zm8.9 8.9h-7.123V14.9h7.123Z" transform="translate(24.191 24.753)" style="fill:#f7f7f7"/></svg>