<svg width="17" height="17" fill="none" xmlns="http://www.w3.org/2000/svg"><g clip-path="url('#clip0_187_444')" fill="#A6A6A6"><path d="M9.914 7.46a1.748 1.748 0 0 0-1.42-.735c-.584 0-1.105.291-1.422.736-.203.291-.33.647-.33 1.027 0 .965.787 1.751 1.751 1.751a1.755 1.755 0 0 0 1.421-2.778Z"/><path d="M11.019 7.473c.127.253.203.66.203 1.015a2.732 2.732 0 0 1-2.728 2.728 2.724 2.724 0 0 1-2.728-2.728c0-.368.076-.762.203-1.015H4.434v4.073c0 .533.47 1.002 1.002 1.002h6.116a1.03 1.03 0 0 0 1.002-1.002V7.473H11.02ZM12.097 4.655h-1.472v1.688H12.3v-1.7l-.203.012Z"/><path d="M12.478.494H4.51A4.018 4.018 0 0 0 .5 4.504v7.98c0 2.196 1.802 3.998 4.01 3.998h7.98a4.018 4.018 0 0 0 4.01-4.01V4.504c-.013-2.208-1.814-4.01-4.022-4.01Zm.964 6.966v4.086c0 1.066-.825 1.89-1.89 1.89H5.436a1.863 1.863 0 0 1-1.89-1.89V5.43c0-1.066.824-1.89 1.89-1.89h6.116c1.065 0 1.89.824 1.89 1.89v2.03Z"/></g><defs><clipPath id="clip0_187_444"><path fill="#fff" transform="translate(.5 .487)" d="M0 0h16v16H0z"/></clipPath></defs></svg>