<svg width="43" height="43" fill="none" xmlns="http://www.w3.org/2000/svg"><path d="M11.245 2.274a10.361 10.361 0 0 1 6.28-2.101A4.656 4.656 0 0 1 21.5 2.24 4.656 4.656 0 0 1 25.475.173a10.361 10.361 0 0 1 6.28 2.101c1.392 1.082 2.465 2.579 2.844 4.389.869.066 1.664.426 2.332.97 1.012.821 1.749 2.053 2.212 3.357.727 2.027.923 4.61.17 6.81.19.09.379.197.562.318.728.485 1.282 1.18 1.69 1.998.803 1.604 1.135 3.84 1.135 6.556 0 3.024-1.153 5.054-2.616 6.307a7.102 7.102 0 0 1-2.793 1.47c-.265 1.48-1.007 3.191-2.17 4.644-1.51 1.894-3.853 3.479-6.996 3.479-2.49 0-4.473-1.378-5.76-2.73a11.25 11.25 0 0 1-.865-1.02 11.25 11.25 0 0 1-.864 1.02c-1.287 1.352-3.267 2.73-5.76 2.73-3.143 0-5.483-1.585-6.996-3.48a10.751 10.751 0 0 1-2.17-4.642 7.103 7.103 0 0 1-2.794-1.47C1.454 31.725.301 29.692.301 26.671c0-2.716.334-4.955 1.134-6.556a5.088 5.088 0 0 1 1.69-2c.18-.119.367-.223.562-.313-.752-2.205-.556-4.786.17-6.813.464-1.304 1.2-2.536 2.213-3.357.667-.544 1.462-.901 2.332-.97.381-1.81 1.454-3.307 2.846-4.389h-.003Zm8.93 4.524V6.77l-.005-.132a7.27 7.27 0 0 0-.408-2.025 3.238 3.238 0 0 0-.819-1.298c-.391-.341-.9-.518-1.418-.493a7.711 7.711 0 0 0-4.653 1.542c-1.23.957-1.972 2.253-1.972 3.758a1.326 1.326 0 0 1-1.743 1.256c-.498-.164-.944-.072-1.418.31-.52.424-1.025 1.177-1.388 2.191-.74 2.073-.663 4.582.352 6.108.145.218.222.473.223.735h1.987a5.962 5.962 0 0 1 5.962 5.962v.888a3.975 3.975 0 1 1-2.65 0v-.888a3.314 3.314 0 0 0-3.312-3.313H4.276c-.159 0-.316-.029-.464-.084l-.008.016c-.525 1.046-.853 2.785-.853 5.368 0 2.277.834 3.56 1.69 4.293.92.79 1.94 1.007 2.285 1.007a1.325 1.325 0 0 1 1.325 1.325c0 .975.53 2.68 1.696 4.142 1.136 1.418 2.771 2.483 4.928 2.483 1.484 0 2.815-.83 3.843-1.908a8.12 8.12 0 0 0 1.158-1.529c.117-.2.217-.409.3-.625V14.748H17.3a3.975 3.975 0 1 1 0-2.65h2.875v-5.3Zm2.65 26.496v2.563c.082.216.183.425.3.625.26.45.651 1 1.155 1.53 1.03 1.078 2.364 1.907 3.845 1.907 2.157 0 3.792-1.065 4.929-2.483 1.166-1.462 1.696-3.166 1.696-4.142a1.325 1.325 0 0 1 1.325-1.324c.344 0 1.364-.218 2.284-1.008.856-.733 1.69-2.016 1.69-4.292 0-2.584-.33-4.32-.853-5.37a2.447 2.447 0 0 0-.795-.98 1.741 1.741 0 0 0-1.001-.273 1.325 1.325 0 0 1-1.103-2.059c1.018-1.526 1.092-4.035.353-6.108-.363-1.014-.87-1.77-1.389-2.191-.474-.382-.92-.477-1.417-.31A1.325 1.325 0 0 1 32.1 8.123c0-1.505-.742-2.801-1.974-3.758a7.711 7.711 0 0 0-4.65-1.542 2.014 2.014 0 0 0-1.419.493c-.374.36-.656.806-.821 1.298a6.832 6.832 0 0 0-.41 2.157v23.876h1.987a3.314 3.314 0 0 0 3.312-3.312v-4.863a3.975 3.975 0 1 1 2.65 0v4.863a5.962 5.962 0 0 1-5.962 5.962h-1.988v-.002Zm-10.6-19.871a1.325 1.325 0 1 0 2.65 0 1.325 1.325 0 0 0-2.65 0Zm17.225 6.624a1.325 1.325 0 1 0 0-2.65 1.325 1.325 0 0 0 0 2.65Zm-15.9 7.95a1.325 1.325 0 1 0 0 2.65 1.325 1.325 0 0 0 0-2.65Z" fill="#80C904"/></svg>