<svg width="29" height="43" fill="none" xmlns="http://www.w3.org/2000/svg"><path d="M14.494.672C6.934.672.8 6.865.711 14.545v.007c-.003.101-.003.202 0 .303.005.188.017.447.047.764.122 1.943.64 3.839 1.52 5.566a13.958 13.958 0 0 0 3.598 4.468c2.611 3.001 3.257 5.689 3.33 6.593v.008c.01.095.024.189.042.28h-.004v2.592l10.668-2.17v-.072c.081-.197.134-.408.152-.63v-.01c.081-.998.512-3.655 3.063-6.576a13.95 13.95 0 0 0 3.61-4.494 14.194 14.194 0 0 0 1.509-5.6c.025-.274.04-.55.045-.826v-.164C28.196 6.876 22.062.672 14.494.672ZM3.556 14.59A11.238 11.238 0 0 1 6.8 6.79a10.838 10.838 0 0 1 7.694-3.222c5.998 0 10.873 4.914 10.952 11.046v.135c0 .077-.008.252-.037.604l-.002.017v.02a11.256 11.256 0 0 1-1.218 4.495 11.058 11.058 0 0 1-2.923 3.59l-.095.075-.081.091c-2.686 3.035-3.518 5.934-3.774 7.633h-.899c.064-2.223.354-6.365 1.59-7.748a5.775 5.775 0 0 0 2.134-4.171c.014-.16.014-.261.014-.334v-.057a5.803 5.803 0 0 0-1.674-4.028 5.596 5.596 0 0 0-3.973-1.664c-1.17 0-2.311.372-3.265 1.063a5.727 5.727 0 0 0-2.055 2.794 5.835 5.835 0 0 0-.083 3.49 5.74 5.74 0 0 0 1.919 2.892c1.226 1.395 1.527 5.54 1.6 7.763h-.683c-.319-1.748-1.374-4.636-4.025-7.644l-.083-.093-.097-.076a11.07 11.07 0 0 1-2.914-3.575 11.268 11.268 0 0 1-1.225-4.475l-.002-.026-.003-.028a7.634 7.634 0 0 1-.037-.702v-.042l.001-.022v-.001Zm10.952.13c2.305 0 4.182 1.897 4.21 4.244v.116c0 .043 0 .1-.014.188a4.33 4.33 0 0 1-1.593 3.113l-.1.073-.085.087c-1.564 1.767-1.891 6.256-1.948 8.718h-.925c-.07-2.462-.412-6.951-1.977-8.718l-.085-.087-.1-.073a4.272 4.272 0 0 1-1.13-1.396 4.346 4.346 0 0 1-.463-1.746.496.496 0 0 0-.008-.087.29.29 0 0 1-.006-.044v-.13c.043-2.346 1.934-4.258 4.224-4.258Zm5.404 19.714-10.668 2.17v1.403l10.668-2.288v-1.285ZM9.244 39.775v-.29L19.912 37.2v2.576c0 .384-.15.753-.417 1.024a1.41 1.41 0 0 1-1.005.425h-1.588c-.24.435-.59.799-1.012 1.053a2.75 2.75 0 0 1-1.395.395 2.75 2.75 0 0 1-1.394-.395 2.815 2.815 0 0 1-1.012-1.053h-1.423a1.41 1.41 0 0 1-1.005-.425 1.462 1.462 0 0 1-.417-1.024Z" fill="#80C904"/></svg>