<svg width="35" height="34" fill="none" xmlns="http://www.w3.org/2000/svg"><g clip-path="url('#clip0_187_698')" fill="#80C904"><path d="M16.696 9.053a3.08 3.08 0 0 0-3.076 3.075 3.08 3.08 0 0 0 3.076 3.076 3.08 3.08 0 0 0 3.075-3.076 3.08 3.08 0 0 0-3.075-3.075Zm0 5.018a1.945 1.945 0 0 1-1.943-1.943c0-1.07.872-1.942 1.943-1.942 1.07 0 1.942.871 1.942 1.942a1.945 1.945 0 0 1-1.942 1.943ZM30.149 8.115a2.018 2.018 0 0 0-2.016 2.016c0 1.112.904 2.016 2.016 2.016a2.018 2.018 0 0 0 2.015-2.016 2.018 2.018 0 0 0-2.015-2.016Zm0 2.899a.883.883 0 0 1 0-1.765.883.883 0 0 1 0 1.764Z"/><path d="M31.752 2.692H23.51a2.286 2.286 0 0 0-2.283 2.283v2.602H3.256A2.425 2.425 0 0 0 .834 9.999V24.55a2.425 2.425 0 0 0 2.422 2.422h8.677l-.765 3.108-.001.008a.56.56 0 0 0-.008.041l-.003.02a.606.606 0 0 0-.003.041l-.001.021v.004c0 .017 0 .034.002.05v.007a.59.59 0 0 0 .01.061l.002.008a.548.548 0 0 0 .014.051l.005.014a.568.568 0 0 0 .045.096l.01.017a.567.567 0 0 0 .024.034l.009.012c0 .002.002.003.004.005a.63.63 0 0 0 .031.035l.009.01a.54.54 0 0 0 .044.04l.013.01a.57.57 0 0 0 .036.025l.016.01a.477.477 0 0 0 .093.045l.018.007a.558.558 0 0 0 .041.012l.018.004a.56.56 0 0 0 .045.008l.015.002c.02.003.042.004.063.004h11.317a.567.567 0 1 0 0-1.133h-3.762l.659-2.677h9.911a2.17 2.17 0 0 0 2.167-2.167v-4.902a2.286 2.286 0 0 0 2.024-2.268V4.975a2.285 2.285 0 0 0-2.283-2.283Zm-7.578 2.283c0-.634.516-1.15 1.15-1.15h6.428c.634 0 1.15.516 1.15 1.15v.668h-8.728v-.668Zm0 1.801h8.727v8.987h-.27l-2.852-3.138a.567.567 0 0 0-.84 0l-.809.89-2.01-2.21a.567.567 0 0 0-.84 0l-1.106 1.216V6.776Zm6.925 8.987h-.926l-1.277-1.405.463-.51 1.74 1.915Zm-6.924-1.602.022.02 1.503-1.653 2.941 3.235h-4.466v-1.602ZM22.36 4.975c0-.578.429-1.056.984-1.137a2.269 2.269 0 0 0-.304 1.137v12.661c0 .413.111.801.304 1.136a1.15 1.15 0 0 1-.984-1.136V4.975ZM4.42 20.332l4.559-4.686 6.06 6.666H4.42v-1.98Zm9.547-.886 1.361-1.498 3.966 4.364h-2.722l-2.605-2.866ZM3.549 25.84h-.293a1.29 1.29 0 0 1-1.289-1.288V9.999c0-.71.578-1.289 1.289-1.289h.293c-.167.307-.262.66-.262 1.034v15.062c0 .374.095.726.262 1.033Zm14.558 3.81h-5.665l.659-2.676h5.664l-.659 2.676Zm12.77-4.843c0 .57-.463 1.033-1.033 1.033H5.454c-.57 0-1.034-.463-1.034-1.033v-1.36h26.458v1.36Zm0-2.494H20.827l-5.078-5.588a.567.567 0 0 0-.839 0l-1.708 1.88-3.789-4.166a.566.566 0 0 0-.825-.014L4.42 18.707V9.744c0-.57.463-1.033 1.032-1.034h15.776v8.926a2.285 2.285 0 0 0 2.283 2.283h7.367v2.393Zm2.024-4.676a1.15 1.15 0 0 1-1.15 1.15H25.32a1.15 1.15 0 0 1-1.146-1.15v-.74h8.727v.74Z"/></g><defs><clipPath id="clip0_187_698"><path fill="#fff" transform="translate(.834 .137)" d="M0 0h33.201v33.201H0z"/></clipPath></defs></svg>