<svg width="265" height="256" viewBox="0 0 265 256" fill="none" xmlns="http://www.w3.org/2000/svg">
<path d="M132.5 0C159.474 -1.13903e-06 185.806 7.95317 207.976 22.7966C230.146 37.6401 247.098 58.6667 256.568 83.0664C266.037 107.466 267.571 134.077 260.967 159.341C254.362 184.606 239.932 207.322 219.606 224.453L132.5 128V0Z" fill="#012030"/>
<path d="M191.619 193.993C180.956 202.981 168.247 209.409 154.526 212.757C140.806 216.104 126.461 216.276 112.659 213.257L132.511 128.543L191.619 193.993Z" fill="#45C4B0"/>
<path d="M110.569 222.174C93.6909 218.483 78.1032 210.598 65.3485 199.3C52.5938 188.001 43.1144 173.681 37.8483 157.757L132.511 128.543L110.569 222.174Z" fill="#6C95A0"/>
<path d="M46.8639 154.974C42.5575 141.952 41.4939 128.132 43.7595 114.637C46.0251 101.143 51.556 88.3556 59.9022 77.3156L132.511 128.543L46.8639 154.974Z" fill="#314955"/>
<path d="M59.9022 77.3156C68.2485 66.2757 79.1744 57.2948 91.7913 51.1035C104.408 44.9122 118.36 41.6853 132.511 41.6853V128.543L59.9022 77.3156Z" fill="#13678A"/>
</svg>
