<svg width="370" height="82" viewBox="0 0 370 82" fill="none" xmlns="http://www.w3.org/2000/svg">
<path opacity="0.2" fill-rule="evenodd" clip-rule="evenodd" d="M0 69.9644C30.6476 69.9644 31.0191 47.643 61.6667 47.643C92.3143 47.643 92.6858 25.3215 123.333 25.3215C153.981 25.3215 154.352 3 185 3C215.648 3 216.019 58.8037 246.667 58.8037C277.314 58.8037 277.686 36.4822 308.333 36.4822C338.981 36.4822 339.352 14.1607 370 14.1607V81.1252H0V69.9644Z" fill="url(#paint0_linear_98_2)"/>
<path d="M0 68.9644C30.6476 68.9644 31.0191 46.643 61.6667 46.643C92.3143 46.643 92.6858 24.3215 123.333 24.3215C153.981 24.3215 154.352 2 185 2C215.648 2 216.019 57.8037 246.667 57.8037C277.314 57.8037 277.686 35.4822 308.333 35.4822C338.981 35.4822 339.352 13.1607 370 13.1607" stroke="#012030" stroke-width="2.01861" stroke-linejoin="round"/>
<defs>
<linearGradient id="paint0_linear_98_2" x1="185" y1="3" x2="185" y2="81.1252" gradientUnits="userSpaceOnUse">
<stop offset="0.505208" stop-color="#012030"/>
<stop offset="1" stop-color="#02131C" stop-opacity="0"/>
</linearGradient>
</defs>
</svg>
