<svg width="21" height="22" viewBox="0 0 21 22" fill="none" xmlns="http://www.w3.org/2000/svg">
<path d="M9.14311 0.94611L7.84067 4.04591C7.58018 4.12406 7.34575 4.2543 7.11131 4.38454L4.01151 3.08211L2.136 4.95762L3.43843 8.05742C3.30819 8.3179 3.204 8.52629 3.0998 8.78678L0 10.0892V12.6941L3.0998 13.9965C3.204 14.257 3.30819 14.4654 3.43843 14.7259L2.136 17.8257L4.01151 19.7012L7.11131 18.3988C7.34575 18.503 7.58018 18.6332 7.84067 18.7374L9.14311 21.8372H11.748L13.0504 18.7374C13.2849 18.6332 13.5453 18.529 13.7798 18.3988L16.8796 19.7012L18.7551 17.8257L17.4527 14.7259C17.5569 14.4915 17.6871 14.231 17.7913 13.9965L20.8911 12.6941V10.0892L17.7913 8.78678C17.7131 8.55234 17.5829 8.29186 17.4527 8.05742L18.7551 4.95762L16.8796 3.08211L13.7798 4.38454C13.5453 4.28035 13.2849 4.15011 13.0504 4.04591L11.748 0.94611H9.14311V0.94611ZM10.4455 7.4583C12.6076 7.4583 14.3529 9.20356 14.3529 11.3656C14.3529 13.5277 12.6076 15.2729 10.4455 15.2729C8.2835 15.2729 6.53823 13.5277 6.53823 11.3656C6.53823 9.20356 8.2835 7.4583 10.4455 7.4583Z" fill="#DAFDBA" fill-opacity="0.8"/>
</svg>
