<svg width="21" height="19" viewBox="0 0 21 19" fill="none" xmlns="http://www.w3.org/2000/svg">
<path d="M1.30569 0C0.574505 0 0 0.574505 0 1.30569C0 2.03688 0.574505 2.61139 1.30569 2.61139C2.03688 2.61139 2.61139 2.03688 2.61139 1.30569C2.61139 0.574505 2.03688 0 1.30569 0ZM5.22277 0V2.61139H20.8911V0H5.22277ZM1.30569 5.22277C0.574505 5.22277 0 5.79728 0 6.52847C0 7.25966 0.574505 7.83416 1.30569 7.83416C2.03688 7.83416 2.61139 7.25966 2.61139 6.52847C2.61139 5.79728 2.03688 5.22277 1.30569 5.22277ZM5.22277 5.22277V7.83416H20.8911V5.22277H5.22277ZM1.30569 10.4455C0.574505 10.4455 0 11.0201 0 11.7512C0 12.4824 0.574505 13.0569 1.30569 13.0569C2.03688 13.0569 2.61139 12.4824 2.61139 11.7512C2.61139 11.0201 2.03688 10.4455 1.30569 10.4455ZM5.22277 10.4455V13.0569H20.8911V10.4455H5.22277ZM1.30569 15.6683C0.574505 15.6683 0 16.2428 0 16.974C0 17.7052 0.574505 18.2797 1.30569 18.2797C2.03688 18.2797 2.61139 17.7052 2.61139 16.974C2.61139 16.2428 2.03688 15.6683 1.30569 15.6683ZM5.22277 15.6683V18.2797H20.8911V15.6683H5.22277Z" fill="#DAFDBA" fill-opacity="0.8"/>
</svg>
