<svg width="21" height="21" viewBox="0 0 21 21" fill="none" xmlns="http://www.w3.org/2000/svg">
<path d="M9.05785 0.0258796C4.06309 0.0258796 0 4.08897 0 9.08373C0 14.0785 4.06309 18.1416 9.05785 18.1416C10.5847 18.1416 12.0858 17.7793 13.3539 17.0805C13.4554 17.2028 13.5681 17.3154 13.6903 17.417L16.2783 20.0049C16.5172 20.2738 16.8086 20.491 17.1346 20.6432C17.4605 20.7954 17.8141 20.8794 18.1737 20.89C18.5333 20.9005 18.8912 20.8375 19.2256 20.7048C19.5599 20.572 19.8636 20.3723 20.1179 20.1179C20.3723 19.8636 20.572 19.5599 20.7048 19.2256C20.8375 18.8912 20.9005 18.5333 20.89 18.1737C20.8794 17.8141 20.7954 17.4605 20.6432 17.1346C20.491 16.8086 20.2738 16.5172 20.0049 16.2783L17.417 13.6903C17.2909 13.5642 17.1521 13.4514 17.0029 13.3539C17.7016 12.0858 18.1416 10.6106 18.1416 9.05785C18.1416 4.06309 14.0785 0 9.08373 0L9.05785 0.0258796ZM9.05785 2.61384C12.6551 2.61384 15.5277 5.48647 15.5277 9.08373C15.5277 10.7918 14.9066 12.3704 13.8197 13.535C13.7938 13.5609 13.7679 13.5868 13.7421 13.6127C13.6198 13.7142 13.4056 13.9491 13.4056 13.9491C13.4056 13.9491 10.7141 15.5795 9.03197 15.5795C5.43471 15.5795 2.56208 12.7069 2.56208 9.10961C2.56208 5.51235 5.43471 2.63972 9.03197 2.63972L9.05785 2.61384Z" fill="#DAFDBA" fill-opacity="0.8"/>
</svg>
